<?xml version="1.0" encoding="utf-8"?>
<!-- Generator: Adobe Illustrator 22.0.1, SVG Export Plug-In . SVG Version: 6.00 Build 0)  -->
<svg version="1.1" id="Calque_1" xmlns="http://www.w3.org/2000/svg" xmlns:xlink="http://www.w3.org/1999/xlink" x="0px" y="0px"
	 viewBox="0 0 620 620" style="enable-background:new 0 0 620 620;" xml:space="preserve">
<g>
	<polygon points="427.6,578.9 360.5,253 256.9,253 192.4,578.8 181.7,576.7 247.9,242.1 369.3,242.1 438.3,576.7 	"/>
	<path d="M326.8,585c0,7.5-6.1,13.6-13.6,13.6h-6.4c-7.5,0-13.6-6.1-13.6-13.6V194.9c0-7.5,6.1-13.6,13.6-13.6h6.4
		c7.5,0,13.6,6.1,13.6,13.6V585z"/>
	<path d="M372.2,321.7c-51,27.1-101.9,54.3-152.9,81.4c-2.1,1.1-2.3,4.8,0,5.9c65,30.1,130,60.2,195.1,90.3c0.3-2.1,0.5-4.1,0.8-6.2
		c-76.4,27.1-152.7,54.2-229.1,81.4c-3.5,1.3-3.1,6.7,0.9,6.7c81.9,0,163.9,0,245.8,0c4,0,4.5-5.5,0.9-6.7
		C357,548.6,280.2,522.8,203.3,497c0.3,2.1,0.5,4.1,0.8,6.2c64.8-32.6,129.6-65.2,194.4-97.8c2.2-1.1,2.3-4.8,0-5.9
		C345,375.2,291.4,351,237.9,326.7c0,2,0,3.9,0,5.9c43.2-26,86.4-52.1,129.6-78.1c2.9-1.7,1.7-6.3-1.7-6.3c-38,0-76.1,0-114.1,0
		c-3.4,0-4.6,4.6-1.7,6.3c40.8,24.4,81.6,48.7,122.4,73.1c3.8,2.3,7.2-3.6,3.4-5.9c-40.8-24.4-81.6-48.7-122.4-73.1
		c-0.6,2.1-1.1,4.2-1.7,6.3c38,0,76.1,0,114.1,0c-0.6-2.1-1.1-4.2-1.7-6.3c-43.2,26-86.4,52.1-129.6,78.1c-2,1.2-2.4,4.8,0,5.9
		c53.5,24.3,107.1,48.5,160.6,72.8c0-2,0-3.9,0-5.9c-64.8,32.6-129.6,65.2-194.4,97.8c-2.8,1.4-1.8,5.3,0.8,6.2
		c76.8,25.8,153.7,51.7,230.5,77.5c0.3-2.2,0.6-4.5,0.9-6.7c-81.9,0-163.9,0-245.8,0c0.3,2.2,0.6,4.5,0.9,6.7
		c76.4-27.1,152.7-54.2,229.1-81.4c2.5-0.9,3.7-4.9,0.8-6.2c-65-30.1-130-60.2-195.1-90.3c0,2,0,3.9,0,5.9
		c51-27.1,101.9-54.3,152.9-81.4C379.5,325.5,376.1,319.7,372.2,321.7z"/>
</g>
<path d="M386.9,250.3c0,7.5-6.1,13.6-13.6,13.6H246.7c-7.5,0-13.6-6.1-13.6-13.6v-40.8c0-7.5,6.1-13.6,13.6-13.6h126.5
	c7.5,0,13.6,6.1,13.6,13.6L386.9,250.3L386.9,250.3z"/>
<g>
	<g>
		<path d="M236,28.3c24.5-22.8,57.8,15.3,62.6,47.6c4.8,32.3,4.8,91.5,4.8,91.5s-9.2-38.8-33.7-64.3C245.2,77.6,211.5,51.1,236,28.3
			z"/>
		<path d="M285.7,169.8c0,0-15-39-34.7-56.1c-15.6-13.6-46-19.1-51.6,4.1c-6.5,26.9,17,28.4,43.5,32.7
			C257,152.7,276.5,158.3,285.7,169.8z"/>
	</g>
	<g>
		<path d="M384,28.3c-24.5-22.8-57.8,15.3-62.6,47.6c-4.8,32.3-4.8,91.5-4.8,91.5s9.2-38.8,33.7-64.3
			C374.8,77.6,408.5,51.1,384,28.3z"/>
		<path d="M334.3,169.8c0,0,15-39,34.7-56.1c15.6-13.6,46-19.1,51.6,4.1c6.5,26.9-17,28.4-43.5,32.7
			C363,152.7,343.5,158.3,334.3,169.8z"/>
	</g>
</g>
<path d="M470.1,585c0,7.5-6.1,13.6-13.6,13.6h-293c-7.5,0-13.6-6.1-13.6-13.6v-3.6c0-7.5,6.1-13.6,13.6-13.6h293
	c7.5,0,13.6,6.1,13.6,13.6L470.1,585L470.1,585z"/>
<rect x="302" y="173.6" width="16" height="22.2"/>
</svg>
